<?xml version="1.0" encoding="utf-8"?>
<!-- Generator: Adobe Illustrator 27.5.0, SVG Export Plug-In . SVG Version: 6.00 Build 0)  -->
<svg version="1.1" id="Layer_2_00000134940889628140331880000005189062513658749825_"
	 xmlns="http://www.w3.org/2000/svg" xmlns:xlink="http://www.w3.org/1999/xlink" x="0px" y="0px" viewBox="0 0 508 456.8"
	 style="enable-background:new 0 0 508 456.8;" xml:space="preserve">
<style type="text/css">
	.st0{fill:#CC924B;}
</style>
<g>
	<path class="st0" d="M289.7,145.1C289.7,145.1,289.7,145.1,289.7,145.1C289.7,145.1,289.7,145.1,289.7,145.1L289.7,145.1z"/>
	<path class="st0" d="M258.1,85.8c-52.7,41.9-55.3,57.9-55.3,80.9c0,10.7,2.5,21.2,7.3,30.2c-6.6,11.6-7.3,21.1-7.3,32.3
		c0,26,14.8,51.1,41.1,55.6c26.3,4.5,73.1-14.2,45.9-77.1c0.3,1.4,11.2,59.5-35,66.8c1.5-0.4,25.1-7.3,31.4-33.4
		c-0.4,0.8-13.8,29.3-50.8,22c0,0-23.5-3.4-24.4-30.9c-0.2-7.8,3.2-15.6,8.2-22.8c6.5,6.5,14.8,11.2,24.7,12.9
		c26.3,4.5,73.1-14.2,45.9-77.1c0.2,0.8,11.4,59.5-35.1,66.8c0,0,25-6.5,31.5-33.4c0,0-13.2,29.4-50.8,22.1c0,0-23.5-3.4-24.4-30.9
		c-0.8-27.5,43.7-55,43.7-55s63.1-39.1,48.4-95.9c0,0,11.3,45.8-66.5,94.5c0,0,81.2-52.4,60-113.2C296.5,0,310.8,43.9,258.1,85.8z"
		/>
	<path class="st0" d="M296.4,71.3c-0.1-0.5-0.3-0.8-0.3-0.8C296.2,70.8,296.3,71.1,296.4,71.3z"/>
	<path class="st0" d="M258.1,148.3c-18.5,14.7-30.9,26.3-39.1,36c1.9,2.7,6.3,8.1,12.8,10.7c11.2-10.7,22.9-17.8,22.9-17.8
		s62.9-39,48.4-95.7c0.7,3.5,8.1,47.2-65.5,93.6c9.3-6.1,75.9-51.8,59-103.3C298.5,78.3,305.1,110.9,258.1,148.3z"/>
	<path class="st0" d="M254.8,374.9l22.3-19.9c-5.1-1.6-9.5-4.6-13-8.4c-1.9-2.1-3.4-4.5-4.7-7c-3.3,5.9-6.8,14.9-4,23.2
		c0,0-6.3-8.1-2.8-26.1l-17.8,15.9C237,363.1,244.6,371.6,254.8,374.9z"/>
	<path class="st0" d="M234.9,310.4c2.1,10.5,9.7,19,19.9,22.3l22.3-19.9c-5.1-1.6-9.5-4.6-13-8.4c-1.9-2.1-3.4-4.5-4.7-7
		c-3.3,5.9-6.8,14.9-4,23.2c0,0-6.3-8.1-2.8-26.1L234.9,310.4z"/>
	<path class="st0" d="M132.2,214.7c-1.1,11.6,1.3,23.2,7.3,33.5c6.1,10.5,15.1,18.3,25.4,23c4.7,10.3,12.5,19.3,23,25.4
		c8.8,5.1,18.5,7.5,28,7.5c1.8,0,3.7-0.1,5.5-0.3c0,0,0,0,0,0l8.5-1.2l-7.6-5.1l0-0.1c-6.4-5.1-11.4-11.7-14.7-19.2
		c-3.8-4.4-8.7-8.8-8.7-8.8c-3.5,0.8-7.1,1.2-10.7,1.2c-6.6,0-13-1.3-19.1-3.7c-3.8-9.4-4.8-19.8-2.6-29.8c3.7,0.8,7.5,1.2,11.4,1.2
		c4.5,0,8.9-0.5,13-1.5c-0.1-1.9-0.2-3.8-0.2-5.7c-4.1,1.1-8.4,1.7-12.8,1.7c-3.4,0-6.7-0.4-9.9-1c1-3.1,2.4-6.1,4.1-9.1
		c5.5-9.4,13.5-16.4,22.7-20.6c0.6-1.7,1.3-3.4,2.2-5.2c-0.4-0.9-0.8-1.8-1.1-2.8c-11,1.7-22.7-0.1-33.1-6.1c-3-1.7-5.7-3.7-8.1-5.8
		c2.5-2.2,5.2-4.1,8.1-5.8c8-4.6,16.6-6.8,25.2-6.8c0.9,0,1.9,0,2.8,0.1c-0.1-1.3-0.1-2.5-0.1-3.8c0-1.9,0-3.8,0.1-5.6
		c-7.5-4.3-14.1-10.6-18.7-18.6c-1.7-2.9-3.1-6-4.1-9.1c3.2-0.6,6.5-1,9.9-1c6.3,0,12.4,1.2,18,3.3c0.7-1.7,1.5-3.4,2.4-5.1
		c-6.3-2.5-13.2-3.8-20.4-3.8c-3.9,0-7.7,0.4-11.4,1.2c-2.2-10.1-1.2-20.5,2.6-29.9c6-2.4,12.5-3.7,19.1-3.7c3.6,0,7.2,0.4,10.7,1.2
		c-0.8,3.7-1.2,7.5-1.2,11.4c0,6.6,1.2,13,3.3,18.9c1.2-1.9,2.5-3.9,4-5.9c-1.1-4.1-1.7-8.5-1.7-13c0-3.4,0.3-6.7,1-9.9
		c3.1,1.1,6.1,2.4,9.1,4.1c1.8,1,3.4,2.1,5,3.3c1.3-1.3,2.6-2.6,4-4c-2-1.5-4-2.9-6.2-4.2c-3.4-2-6.9-3.5-10.5-4.7
		c3.1-9.8,9.2-18.3,17.2-24.5c9.2,1.3,17.9,5,25.2,11c1.2-1,2.4-2,3.7-3c0.3-0.2,0.5-0.4,0.8-0.6c-6.7-5.7-14.6-9.7-23-11.8
		c7.2-4,15.6-6.3,24.4-6.3c5.2,0,10.3,0.8,15.1,2.3c1.3-1.5,2.6-3.1,3.8-4.6c-5.9-2.1-12.2-3.3-18.9-3.3v0
		c-12.2,0-23.4,3.9-32.6,10.5c-11.3-1.1-23,1.2-33.5,7.2c-10.5,6.1-18.3,15.1-23,25.4c-10.3,4.7-19.3,12.5-25.4,23
		c-6.1,10.5-8.3,22.2-7.2,33.5c-6.6,9.2-10.5,20.5-10.5,32.6S125.7,205.5,132.2,214.7z M188.3,276.3c4,0,8.1-0.4,12.1-1.3
		c2.9,9,7.9,17.1,14.6,23.5c-8.3-0.1-16.6-2.3-24.3-6.8c-7.7-4.4-13.7-10.6-18-17.7C177.7,275.6,183,276.3,188.3,276.3z M190.7,72.5
		c7.7-4.4,16-6.6,24.3-6.7c-6.7,6.4-11.8,14.5-14.6,23.5c-9.3-2.1-18.8-1.7-27.7,0.9C177,83,183,76.9,190.7,72.5z M144.4,245.4
		c-4.4-7.5-6.6-15.9-6.8-24.3c6.5,6.7,14.5,11.8,23.6,14.6c-2.1,9.2-1.7,18.8,0.9,27.7C154.9,259.1,148.8,253.1,144.4,245.4z
		 M160.1,192.8c8.3,4.8,17.3,7.2,26.2,7.5c-7.6,4.7-14.2,11.3-19,19.6c-2,3.4-3.5,6.9-4.7,10.5c-9.8-3.1-18.4-9.2-24.6-17.2
		c0.3-2,0.7-4.1,1.2-6.1c2.1-7.9,6.1-15.1,11.5-21C153.6,188.6,156.7,190.8,160.1,192.8z M167.3,144.4c4.8,8.2,11.3,14.8,18.9,19.5
		c-9.1,0.3-18.1,2.8-26.2,7.5c-3.4,1.9-6.5,4.2-9.3,6.7c-6.9-7.6-11.3-17.1-12.7-27.1c6.2-8,14.7-14,24.5-17.1
		C163.8,137.5,165.4,141,167.3,144.4z M144.3,118.8L144.3,118.8c4.4-7.7,10.6-13.7,17.7-18c-2.5,8.9-2.9,18.4-0.9,27.7
		c-9,2.8-17.1,7.9-23.5,14.6C137.7,134.8,139.9,126.5,144.3,118.8z M133.7,157.7c2.2,9,6.7,17.4,13.1,24.4
		c-6.1,6.6-10.5,14.6-12.9,23.5c-0.1,0.3-0.1,0.6-0.2,0.9c-4-7.2-6.3-15.6-6.3-24.4C127.4,173.3,129.7,165,133.7,157.7z"/>
	<path class="st0" d="M330,125.9c-7.2,0-14.1,1.4-20.4,3.8c-1.2,2.7-2.5,5.4-4,8.1c7.2-4,15.5-6.3,24.4-6.3c3.4,0,6.7,0.3,9.9,1
		c-1,3.1-2.4,6.1-4.1,9.1c-6.4,11.1-16.4,18.8-27.7,22.6c0.4,2.2,0.8,4.4,1,6.5c3.5-0.8,7.1-1.2,10.8-1.2c8.6,0,17.3,2.2,25.2,6.8
		c2.9,1.7,5.6,3.6,8.1,5.8c-2.5,2.2-5.2,4.1-8.1,5.8c-11.7,6.7-24.9,8.3-37.1,5.3c-0.5,2.2-1.1,4.2-1.9,6.1
		c12.1,3.5,22.9,11.5,29.6,23.2c1.7,2.9,3.1,6,4.1,9.1c-3.2,0.6-6.5,1-9.9,1c-7.9,0-15.4-1.8-22.1-5.1c0.5,2.3,0.8,4.5,1.1,6.6
		c6.5,2.6,13.6,4.1,21,4.1c3.9,0,7.7-0.4,11.4-1.2c2.2,10.1,1.2,20.5-2.6,29.8c-9.3,3.8-19.8,4.8-29.8,2.6l-8.5,8.5
		c-3.3,7.6-8.3,14.2-14.6,19.3v0.3l-7.5,4.8c0,0,0.1,0,0.1,0c-0.2,0.1-0.3,0.2-0.5,0.3l8.4,1.4c0.1-0.1,0.2-0.1,0.3-0.2
		c1.8,0.2,3.7,0.3,5.5,0.3c9.5,0,19.2-2.4,28-7.5c10.5-6.1,18.3-15.1,23-25.4c10.3-4.7,19.3-12.5,25.4-23
		c5.9-10.3,8.4-21.9,7.3-33.5c6.6-9.2,10.5-20.4,10.5-32.6l0,0c0-12.2-3.9-23.4-10.5-32.6c1.1-11.3-1.2-23-7.2-33.5
		c-6.1-10.5-15.1-18.3-25.4-23c-4.7-10.3-12.5-19.3-23-25.4c-3.1-1.8-6.3-3.3-9.6-4.4c-0.6,1.4-1.2,2.8-1.9,4.2
		c0.1,0.4,0.2,0.8,0.3,1.1c2.9,1,5.7,2.3,8.4,3.9c7.7,4.4,13.7,10.6,18,17.7c-6-1.7-12.2-2.4-18.5-2.1c0.2,1.9,0.3,3.7,0.3,5.6
		c0.9,0,1.7-0.1,2.6-0.1c6.6,0,13,1.3,19.1,3.7c3.8,9.4,4.8,19.8,2.6,29.9C337.7,126.3,333.9,125.9,330,125.9z M317.3,291.8
		c-7.7,4.4-16,6.6-24.3,6.7c6.7-6.4,11.8-14.5,14.6-23.5c4,0.9,8.1,1.3,12.1,1.3c5.3,0,10.5-0.8,15.6-2.2
		C331,281.2,325,287.3,317.3,291.8z M340.7,219.9L340.7,219.9c-4.8-8.3-11.4-14.9-19-19.6c8.9-0.3,17.9-2.7,26.2-7.5
		c3.4-2,6.5-4.2,9.3-6.7c5.4,5.9,9.3,13,11.5,21c0.5,2,1,4.1,1.2,6.1c-6.2,8-14.7,14-24.6,17.2C344.2,226.8,342.6,223.2,340.7,219.9
		z M363.7,245.4c-4.4,7.7-10.6,13.7-17.7,18c2.5-8.9,2.9-18.4,0.9-27.7c9.1-2.9,17.1-8,23.6-14.6C370.3,229.6,368,237.9,363.7,245.4
		z M380.6,182.1c0,8.8-2.3,17.1-6.3,24.4c-0.1-0.3-0.1-0.6-0.2-0.9c-2.4-8.9-6.8-16.9-12.9-23.5c6.4-7,10.8-15.4,13.1-24.4
		C378.3,164.9,380.6,173.3,380.6,182.1z M363.7,118.8L363.7,118.8c4.4,7.7,6.6,16,6.7,24.3c-6.4-6.7-14.5-11.8-23.5-14.6
		c2.1-9.2,1.7-18.8-0.9-27.7C353.1,105.1,359.2,111.1,363.7,118.8z M345.4,133.9c9.8,3.1,18.3,9.2,24.5,17.2
		c-1.4,10-5.7,19.5-12.7,27.1c-2.8-2.5-5.9-4.8-9.3-6.7c-8.3-4.8-17.3-7.2-26.2-7.5c7.6-4.7,14.2-11.3,19-19.6
		C342.6,141,344.2,137.5,345.4,133.9z"/>
	<path class="st0" d="M161.9,338.3c0.2-0.6,0.5-0.6,1-0.5c19.2,0.5,38.5,1,57.7,1.5c0.9,0,1.5-0.4,1.9-1.1c1.3-2.5,1.3-5,0-7.6
		c-0.4-0.8-1.1-1.1-2-1.1c-19.3,0.5-38.6,1-57.9,1.5c-0.5,0-0.8-0.1-0.9-0.6c-0.8-1.9-2.1-3.4-3.8-4.6c-2.4-1.7-5.2-2.3-8.1-2.3
		c-3,0-6,0-9,0.1c-2.5,0.1-5,0.2-7.3,1.4c-0.3,0.3-0.7,0.7-1,1c-0.3,0.9-0.6,1.8-0.9,2.8c2.1,0,4.1,0.1,6,0.1
		c3.6,0.1,7.1,0.1,10.7,0.2c1.3,0,1.9,0.8,1.7,2c-0.2,0.9-0.9,1.1-1.7,1.1c-3.9,0.3-7.8,0.6-11.7,0.9c-1.7,0.1-3.3,0.3-4.9,0.4
		c0,1.1-0.1,2-0.1,3c2.8,0.2,5.7,0.5,8.5,0.7c2.8,0.2,5.5,0.4,8.3,0.7c1.1,0.1,1.6,0.6,1.6,1.6c0,1-0.6,1.5-1.8,1.5
		c-5.2,0.1-10.3,0.2-15.4,0.3c-0.3,0-0.6,0-0.8,0c0.2,2.1,1.4,3.4,3.3,3.8c1.1,0.3,2.2,0.5,3.4,0.5c3.8,0.1,7.5,0.2,11.3,0.2
		c1,0,2.1-0.1,3-0.3l0,0C157.1,344.8,160.4,342.7,161.9,338.3z"/>
	<path class="st0" d="M375.9,328.2c-5.8-4.3-12.3-6.1-19.5-4.7c-2.7,0.5-5.2,1.9-6.9,4.2c-0.8,1.1-1.4,2.3-2.2,3.6
		c-4.8-0.1-48.7-1.3-58.3-1.5c-0.8,0-1.3,0.3-1.7,0.9c-1.4,2.5-1.4,5-0.2,7.6c0.4,0.9,1.1,1.3,2.2,1.2c9.4-0.3,52.9-1.4,57.3-1.5
		c0.4,0,0.7,0,0.9,0.5c1.4,4.2,4.6,6.5,8.7,7.5c4.1,1,8.1,0.4,12-0.9l0,0c3.4-1.1,6.6-2.6,9-5.4c1.5-1.7,2.2-3.6,1.9-5.9
		C379.1,331.4,377.8,329.5,375.9,328.2z"/>
	<rect x="286.4" y="368.3" class="st0" width="221.6" height="2.5"/>
	<rect y="454.2" class="st0" width="508" height="2.5"/>
	<rect y="368.3" class="st0" width="223.4" height="2.5"/>
	<path class="st0" d="M4,411.9c1.7,1,4,1.6,6.9,1.9c-0.6-1.3-0.6-2.8,0-4.6c0.6-1.8,1.6-3.6,3.2-5.5s3.6-3.7,6-5.5
		c2.5-1.8,5.4-3.4,8.6-4.9c3.3-1.4,6.9-2.6,11-3.5s8.5-1.3,13-1.3c4.5,0,7.9,0.8,10.3,2.4c2.4,1.6,3.7,3.5,3.8,5.8
		c0.2,2.9-0.4,5.6-1.8,8c-1.4,2.4-3.3,4.5-5.7,6.3s-5.2,3.1-8.5,4.1c-3.2,1-6.6,1.6-10.1,1.8c-0.5-0.1-0.9-0.1-1.4-0.1
		c-0.5,0-0.9,0-1.4,0c1.4-3.3,2.9-6.7,4.3-10.1c1.4-3.4,2.8-6.7,4.1-9.9c0.2-0.6,0.3-1.3,0.3-2c0-0.7-0.3-1.4-0.7-2.1
		c-0.4-0.7-1.1-1.2-2.1-1.6s-2.2-0.7-3.8-0.8l0,0c-1.7,2.9-3.4,6.2-5.3,9.7c-1.9,3.5-3.7,7-5.4,10.4c-1.8,3.4-3.4,6.6-4.9,9.7
		c-1.5,3-2.8,5.5-3.8,7.5c-0.9,1.5-1.2,2.9-1.1,4c0.1,1.1,0.7,2,1.5,2.8s2,1.4,3.5,1.8c1.4,0.5,3,0.8,4.8,1c0.9-2,1.9-4.4,3.2-7.3
		c1.3-2.8,2.6-5.9,4-9.2c1.8,0,3.6,0.2,5.4,0.5c1.7,0.3,3.2,0.9,4.5,1.5c1.3,0.7,2.2,1.5,2.9,2.5c0.7,1,1,2.2,0.8,3.6
		c-0.2,0.9-0.6,1.9-1.4,3c-0.8,1.1-1.9,2.1-3.4,3.1c-1.5,0.9-3.4,1.8-5.7,2.5c-2.3,0.7-5,1.1-8.1,1.3c-3.5,0.2-6.7-0.1-9.4-0.8
		s-5-1.8-6.9-3.1c-1.8-1.4-3.1-2.9-3.8-4.7c-0.7-1.8-0.8-3.7-0.2-5.6c-1-0.2-1.9-0.2-2.9-0.1c-1,0.1-1.9,0.3-2.7,0.7
		c-0.8,0.4-1.6,0.9-2.2,1.5c-0.6,0.6-1,1.4-1.1,2.3c-0.3,2.1,0.5,4,2.4,5.8c1.9,1.7,4.5,3.2,7.7,4.4c3.2,1.2,6.9,2,11,2.6
		c4.1,0.5,8.3,0.7,12.5,0.5c3.3-0.2,6.5-0.6,9.5-1.2c3-0.6,5.6-1.5,7.9-2.6c2.3-1.1,4.1-2.4,5.6-3.8c1.4-1.4,2.3-3,2.7-4.8
		c0.2-1.3,0.1-2.5-0.2-3.5c-0.4-1.1-1-2.1-1.9-3c-0.9-0.9-2-1.7-3.3-2.4s-2.8-1.3-4.4-1.8c2.8-0.4,5.7-1.1,8.8-2.1
		c3-1,5.8-2.3,8.5-3.8c2.6-1.5,4.8-3.3,6.7-5.3c1.8-2,3-4.3,3.4-6.8c0.5-2.6,0.2-4.9-1.1-6.8c-1.2-1.9-3.1-3.5-5.5-4.7
		c-2.4-1.2-5.3-2.1-8.6-2.6c-3.3-0.5-6.8-0.8-10.4-0.7c-5.2,0.1-10.4,0.5-15.6,1.2c-5.1,0.7-10,1.8-14.5,3.1
		c-4.5,1.3-8.6,2.8-12.2,4.7s-6.5,3.8-8.6,6.1c-1,1-1.7,2.2-2,3.6c-0.3,1.4-0.2,2.7,0.4,3.9C1.2,409.8,2.3,410.9,4,411.9z"/>
	<path class="st0" d="M95.8,434.5c-0.5,1.2-0.4,2,0.1,2.7c0.5,0.6,1.3,1,2.2,1c0.6,0,1.2,0,1.8-0.1c0.5-0.1,1.1-0.2,1.5-0.5
		c0.5-0.3,1-0.7,1.4-1.2c0.5-0.5,1-1.2,1.5-2.2c0.4,1,1,2,1.9,2.8c0.9,0.8,2,1.2,3.4,1.3c2.1,0,4.3-0.8,6.5-2.3
		c2.2-1.5,4.2-3.4,6-5.7c1.8-2.3,3.4-4.8,4.7-7.5c1.3-2.7,2.1-5.2,2.5-7.4c0.4-2.3,0.2-4.1-0.5-5.6s-2.2-2.2-4.4-2.2
		c-3.2,0.1-6.2,1.2-9.1,3.1l-0.9,0.7l6.8-15.4c0.1-0.3-0.2-0.6-0.8-0.8c-0.6-0.3-1.4-0.4-2.3-0.4c-0.9,0-1.8,0.1-2.7,0.4
		c-0.9,0.3-1.6,0.8-2.1,1.6c-0.8,1.3-1.7,3-2.8,5.1c-1.1,2.1-2.2,4.3-3.4,6.7c-1.2,2.4-2.4,4.9-3.5,7.5c-0.9,2-1.8,3.9-2.6,5.8
		c-1.2,1.3-2.4,2.6-3.6,3.8c-1.9,2.1-3.6,3.8-5,5.1c-1.4,1.3-2.3,2-2.8,2s-0.4-0.9,0.4-2.8c0.9-2.4,1.9-4.8,3.1-7.1
		c1.2-2.3,2.3-4.8,3.3-7.4c0-0.4-0.5-0.6-1.7-0.8c1.5-1.1,2.2-2.4,2.2-3.8h0c-0.1-1.2-0.8-2-2.2-2.5c-1.3-0.6-2.8-0.8-4.6-0.8
		c-2.4-0.1-4.8,0.4-7,1.2c-2.3,0.9-4.4,2.1-6.3,3.6c-2,1.5-3.7,3.3-5.3,5.2c-1.6,2-2.9,4-4,6c-1.1,2-1.9,4.1-2.4,6
		c-0.5,2-0.6,3.8-0.5,5.3c0.1,1,0.6,1.8,1.3,2.4c0.8,0.6,1.9,0.9,3.4,0.9c1.5,0,3.3-0.6,5.3-1.8c2-1.2,3.9-2.5,5.7-4
		c-0.3,1.4-0.5,2.5-0.5,3.5c0.1,0.6,0.3,1.1,0.9,1.5c0.5,0.4,1.1,0.7,1.9,0.8s1.6,0.1,2.4,0c0.9-0.1,1.7-0.5,2.5-1
		c1.4-0.9,2.8-1.8,3.9-2.7c1.2-0.9,2.3-1.8,3.4-2.9c1-0.9,2.1-2,3.2-3.2c-0.2,0.5-0.4,0.9-0.6,1.4C96.8,431.9,96.2,433.4,95.8,434.5
		z M106.5,429.6l5.9-13.5c0.3,0.3,0.9,0.6,1.6,0.7s1.8,0.1,3.1-0.2c-0.6-0.3-1.1-0.7-1.2-1.1c-0.2-0.5-0.2-0.9-0.1-1.4
		c0.1-0.5,0.4-0.9,0.7-1.3c0.4-0.4,0.8-0.7,1.2-1c0.3-0.2,0.5-0.3,0.6-0.4c0.1-0.1,0.2-0.1,0.3-0.2c0.1,0,0.2-0.1,0.3-0.1
		c0.1,0,0.3,0,0.7,0l0,0c1,0.1,1.5,0.6,1.5,1.8c0.1,1.1-0.2,2.5-0.8,4.1s-1.4,3.4-2.5,5.4c-1.1,1.9-2.2,3.7-3.4,5.3s-2.3,3-3.5,4.1
		c-1.2,1.1-2.1,1.7-2.9,1.7c-0.9,0-1.5-0.3-1.7-1S106.2,430.9,106.5,429.6z M84.3,416L84.3,416c0.4,0.6,1.4,0.9,2.8,1
		c-0.8,1.7-1.7,3.5-2.6,5.5c-1,2-1.8,4-2.6,6c-0.7,0.7-1.5,1.5-2.5,2.2s-1.8,1.4-2.6,1.9c-0.8,0.5-1.5,0.8-2.1,1
		c-0.6,0.1-0.9-0.1-0.9-0.7c0-0.8,0.2-1.8,0.6-3.1s1-2.8,1.8-4.4c0.8-1.6,1.6-3.2,2.6-4.9c1-1.7,2-3.2,3.1-4.7
		c1.1-1.4,2.2-2.7,3.4-3.7c1.1-1,2.2-1.7,3.3-2c1.2-0.4,1.9-0.4,2.2,0.1c0.3,0.5,0.5,1,0.3,1.4c-0.5,1-1.2,1.9-2.4,2.7
		C87.7,415.1,86.2,415.7,84.3,416z"/>
	<path class="st0" d="M143.4,437.5c0.5,0.4,1.1,0.7,1.9,0.8s1.6,0.1,2.4,0c0.9-0.1,1.7-0.5,2.5-1c1.4-0.9,2.8-1.8,3.9-2.7
		c1.2-0.9,2.3-1.8,3.5-2.9c1.1-1,2.3-2.2,3.5-3.5c1.2-1.3,2.7-2.8,4.3-4.4c0.6-0.6,1-1.1,1.1-1.7c0.2-0.5,0.2-1,0.2-1.4
		c0-0.4-0.1-0.7-0.3-1s-0.2-0.4-0.3-0.6c-2.1,2.2-4.1,4.3-6,6.5c-1.9,2.1-3.6,3.8-5,5.1c-1.4,1.3-2.3,2-2.8,2s-0.4-0.9,0.4-2.8
		c0.9-2.4,1.9-4.8,3.1-7.1c1.2-2.3,2.3-4.8,3.3-7.4c0-0.4-0.5-0.6-1.7-0.8c1.5-1.1,2.2-2.4,2.2-3.8h0c-0.1-1.2-0.8-2-2.2-2.5
		c-1.3-0.6-2.8-0.8-4.6-0.8c-2.4-0.1-4.8,0.4-7,1.2c-2.3,0.9-4.4,2.1-6.3,3.6c-2,1.5-3.7,3.3-5.3,5.2c-1.6,2-2.9,4-4,6
		c-1.1,2-1.9,4.1-2.4,6c-0.5,2-0.6,3.8-0.5,5.3c0.1,1,0.6,1.8,1.3,2.4c0.8,0.6,1.9,0.9,3.4,0.9c1.5,0,3.3-0.6,5.3-1.8
		c2-1.2,3.9-2.5,5.7-4c-0.3,1.4-0.5,2.5-0.5,3.5C142.6,436.6,142.9,437.1,143.4,437.5z M142.1,430.7c-1,0.8-1.8,1.4-2.6,1.9
		c-0.8,0.5-1.5,0.8-2.1,1c-0.6,0.1-0.9-0.1-0.9-0.7c0-0.8,0.2-1.8,0.7-3.1s1-2.8,1.8-4.4c0.8-1.6,1.6-3.2,2.6-4.9
		c1-1.7,2-3.2,3.1-4.7c1.1-1.4,2.2-2.7,3.4-3.7c1.2-1,2.2-1.7,3.3-2c1.1-0.4,1.9-0.4,2.2,0.1c0.3,0.5,0.5,1,0.3,1.4
		c-0.5,1-1.2,1.9-2.4,2.7c-1.1,0.8-2.6,1.3-4.4,1.6h0c0.5,0.6,1.4,0.9,2.9,1c-0.8,1.7-1.7,3.5-2.6,5.5c-1,2-1.8,4-2.6,6
		C143.9,429.2,143,430,142.1,430.7z"/>
	<path class="st0" d="M234.1,416.4c3.2-1,6.2-2.2,9.1-3.8s5.2-3.4,7.2-5.5c2-2.1,3.2-4.5,3.7-7.1c0.4-2.3,0-4.3-1.2-6.1
		c-1.2-1.8-3-3.2-5.4-4.4c-2.4-1.2-5.2-2.1-8.5-2.7c-3.2-0.6-6.7-0.9-10.3-0.8c-5.2,0.1-10.4,0.5-15.6,1.2c-5.1,0.7-10,1.8-14.5,3.1
		c-4.5,1.3-8.6,2.8-12.2,4.7c-3.6,1.8-6.5,3.8-8.6,6.1c-1,1-1.7,2.2-2,3.6s-0.2,2.7,0.4,3.9c0.6,1.2,1.7,2.3,3.4,3.3
		c1.7,1,4,1.6,6.9,1.9c-0.6-1.3-0.6-2.8,0-4.6c0.5-1.8,1.6-3.6,3.2-5.5c1.5-1.9,3.6-3.7,6-5.5c2.5-1.8,5.3-3.4,8.6-4.9
		c3.3-1.4,6.9-2.6,11-3.5s8.5-1.3,13-1.3c4.5,0,7.9,0.8,10.4,2.4c2.4,1.6,3.7,3.5,3.8,5.8c0.1,2.6-0.6,5.1-2.2,7.6
		c-1.6,2.5-3.7,4.7-6.4,6.6c-2.7,1.9-5.8,3.4-9.3,4.5c-3.5,1.1-7.1,1.6-10.9,1.5c1.5-3.6,3-7.2,4.4-10.6c1.5-3.5,2.8-6.7,3.9-9.6
		c0.2-0.6,0.3-1.3,0.3-2c0-0.7-0.3-1.4-0.7-2.1c-0.4-0.7-1.1-1.2-2.1-1.6s-2.2-0.7-3.8-0.8v0c-1.1,2-2.3,4.2-3.6,6.7s-2.7,5.1-4,7.8
		c-1.3,2.7-2.7,5.4-4.1,8.1c-1.4,2.7-2.7,5.3-3.9,7.8c-1.2,2.5-2.3,4.7-3.4,6.8c-1,2-1.9,3.7-2.6,5c-0.8,1.5-1.1,2.9-1,4
		c0.1,1.1,0.7,2,1.5,2.8s2,1.3,3.5,1.8c1.4,0.4,3,0.8,4.8,1c0.6-1.3,1.3-2.8,2-4.6c0.8-1.8,1.6-3.8,2.5-5.9s1.9-4.4,2.9-6.8
		c1-2.4,2.1-4.9,3.1-7.3c0.9,0.9,2.5,1.4,5,1.5c-0.1,1.9-0.2,3.8-0.2,5.6c0,1.8,0.2,3.6,0.6,5.3c0.4,1.7,1.1,3.4,2.1,5
		c1,1.6,2.5,3.2,4.4,4.8c1.2,0.9,2.5,1.5,4.1,1.9c1.6,0.3,3.2,0.4,4.8,0.2c1.6-0.2,3-0.5,4.4-1.1c1.3-0.6,2.3-1.3,2.9-2.3
		c-6-2.6-10.4-5.5-13.1-8.7c-2.8-3.2-3.9-6.9-3.4-11C227.8,418,230.9,417.3,234.1,416.4z"/>
	<path class="st0" d="M302.2,408.8c-1.7-1-4.3-1.5-7.7-1.3c-3.9,0.1-7.2,0.9-9.9,2.6c-2.8,1.7-4.7,3.9-5.9,6.6
		c-0.4,1-0.5,1.9-0.2,2.7c-1.6,1.6-3.2,3.3-4.7,5c-1.6,1.8-3.3,3.3-5,4.6c-1.7,1.4-3.4,2.6-5.2,3.6c-1.7,1-3.3,1.7-4.7,2
		c-1.4,0.3-2.5,0.3-3.5-0.2s-1.5-1.4-1.6-2.8c-0.2-1.5,0.2-3.5,1.1-6c1.9,0.5,4.1,0.5,6.6-0.1c2.5-0.6,4.8-1.6,7-2.8
		c2.2-1.3,4.1-2.8,5.6-4.6c1.5-1.8,2.3-3.6,2.3-5.4c0-0.3-0.1-0.8-0.2-1.2c-0.1-0.5-0.4-1-0.7-1.4c-0.3-0.5-0.9-0.9-1.5-1.3
		c-0.7-0.4-1.6-0.7-2.9-0.9c-2.4-0.3-4.8-0.1-7,0.5c-2.3,0.6-4.4,1.6-6.4,2.9c-2,1.3-3.8,2.8-5.5,4.6c-1.6,1.8-3,3.6-4.1,5.5
		c-1.1,1.9-1.9,3.9-2.4,5.8c-0.5,2-0.6,3.7-0.2,5.3c0.4,1.8,1.2,3.2,2.5,4.1c1.2,0.9,2.6,1.5,4,1.7s2.9,0.3,4.3,0.1
		c1.4-0.2,2.5-0.5,3.4-0.9l0,0c3.3-1.4,6.4-3.2,9.2-5.4c2.8-2.2,5.8-4.9,9-8.3c0.6-0.6,1-1.2,1.2-1.8c0.1-0.4,0.1-0.8,0.1-1.1
		c0.5,0.7,1.1,1.4,1.8,2.1c1,1,2.2,1.9,3.5,2.7c1.3,0.9,2.4,1.7,3.3,2.5c0.9,0.8,1.5,1.7,1.9,2.5s0.1,1.7-0.7,2.6
		c-0.5,0.6-1.1,1.2-2,1.8c-0.9,0.5-1.9,0.8-3.1,0.7c-0.6,0-1.2-0.2-1.8-0.5c-0.6-0.3-1-0.9-1.1-1.7l0,0c-0.2-1,0.3-1.9,1.5-2.6
		c1.3-0.7,2.8-1.2,4.7-1.6c-0.8-1.2-1.8-2-3.1-2.4c-1.3-0.4-2.5-0.5-3.8-0.3c-1.3,0.2-2.5,0.6-3.6,1.3s-1.9,1.5-2.3,2.6
		c-0.5,1-0.6,2-0.3,3s0.9,1.8,1.8,2.5c0.9,0.7,2.1,1.3,3.5,1.7c1.5,0.4,3.2,0.6,5,0.6c4,0,7.2-0.8,9.6-2.5s3.8-3.8,3.9-6.2
		c0.1-1.3-0.2-2.4-0.8-3.3c-0.7-1-1.5-1.8-2.5-2.5c-1-0.7-2-1.5-3.1-2.1c-1.1-0.7-2-1.3-2.7-2c-0.7-0.7-1.1-1.4-1.2-2.1
		s0.3-1.6,1.2-2.6c0.6-0.7,1.5-1.5,2.7-2.3c1.2-0.8,2.3-1.5,3.4-2s2-0.7,2.7-0.5s0.9,0.9,0.5,2.2c-0.5,1.4-1.3,2.8-2.5,4.2
		c-1.2,1.4-2.7,2.3-4.6,2.6c0.9,1.3,2.2,2,3.8,2.1c1.6,0.1,3.3-0.2,4.9-0.8c1.6-0.7,3-1.6,4.1-2.9s1.6-2.7,1.4-4.2
		C304.9,411.3,304,409.8,302.2,408.8z M258.3,419.2c1-1.5,2-2.9,3.1-4.1c1.1-1.2,2.2-2.3,3.3-3.2c1.1-0.9,2.2-1.5,3.2-1.8v0
		c0.6-0.2,1-0.2,1.3-0.1c0.3,0.1,0.5,0.2,0.6,0.5c0.1,0.2,0.2,0.5,0.2,0.8c0,0.3,0,0.5,0,0.8c0,1-0.5,2.1-1.4,3.3
		c-0.9,1.2-2,2.3-3.4,3.4c-1.4,1.1-2.9,2.1-4.5,3c-1.6,0.9-3.2,1.6-4.8,2C256.6,422.1,257.4,420.7,258.3,419.2z"/>
	<path class="st0" d="M304.3,423.8c-0.8,2-1.5,3.9-2.2,5.6c-0.7,1.7-1.2,3.4-1.5,5c-0.2,0.9,0,1.6,0.4,2.2c0.5,0.6,1.1,1,1.9,1.3
		c0.8,0.3,1.7,0.4,2.6,0.3c1-0.1,1.8-0.4,2.6-0.9c1.4-0.9,2.7-1.8,3.9-2.7c1.1-0.9,2.3-1.8,3.4-2.9c0.9-0.9,1.9-1.8,2.9-2.9
		c-0.1,0.3-0.2,0.6-0.2,0.8c-0.5,2-0.6,3.8-0.5,5.3c0.1,1,0.6,1.8,1.3,2.4c0.8,0.6,1.9,0.9,3.4,0.9c1.6,0,3.3-0.6,5.4-1.8
		c2-1.2,3.9-2.5,5.7-4c-0.3,1.4-0.5,2.5-0.5,3.5c0,0.6,0.3,1.1,0.9,1.5c0.5,0.4,1.2,0.7,1.9,0.8s1.6,0.1,2.4,0
		c0.9-0.1,1.7-0.5,2.5-1c1.4-0.9,2.8-1.8,3.9-2.7c1.2-0.9,2.3-1.8,3.5-2.9c0.9-0.8,1.9-1.8,2.9-2.8c-0.7,1.9-1.2,3.7-1.6,5.5
		c-0.2,0.9,0,1.6,0.4,2.2c0.5,0.6,1.1,1,1.9,1.3c0.8,0.3,1.6,0.4,2.6,0.3c1-0.1,1.8-0.4,2.6-0.9c1.2-0.8,2.3-1.5,3.3-2.2
		c1-0.7,1.9-1.5,2.9-2.2c0.9-0.8,1.8-1.6,2.8-2.5c0.9-0.9,1.9-1.9,3-3.1c-0.5,1.2-0.9,2.4-1.2,3.6c-0.4,1.2-0.7,2.4-0.9,3.5l0,0
		c-0.2,0.9-0.1,1.6,0.4,2.2s1.1,1,1.9,1.3c0.8,0.3,1.7,0.4,2.6,0.3c1-0.1,1.8-0.4,2.6-0.9c1.4-0.9,2.8-1.8,3.9-2.7
		c1.2-0.9,2.3-1.8,3.5-2.9c0.9-0.9,1.9-1.9,3-2.9c0,0,0,0.1,0,0.1c-0.8,2.1-1.5,3.9-2.1,5.6c-0.5,1.2-0.4,2,0.1,2.7
		c0.5,0.6,1.3,1,2.2,1c0.7,0,1.5,0,2.1-0.2c0.7-0.1,1.3-0.4,1.9-0.9c0.6-0.5,1.2-1.1,1.7-2c0.6-0.9,1.2-2.1,1.8-3.7l1-2.3
		c0.5-0.7,1.1-1.4,1.7-2.2c0.6-0.8,1.2-1.5,1.9-2.3c0.6-0.8,1.2-1.5,1.8-2.2c0.6-0.7,1.1-1.4,1.5-1.9c0.2-0.3,0.7-0.8,1.2-1.5
		c0.6-0.6,1.2-1.2,1.7-1.6c0.5-0.4,0.9-0.6,1.1-0.6c0.2,0.1,0.1,0.6-0.4,1.6c-0.3,0.7-0.6,1.5-1.1,2.4c-0.4,0.9-0.9,1.8-1.2,2.7
		c-0.4,0.9-0.8,1.7-1,2.5c-0.3,0.8-0.4,1.3-0.4,1.7c-0.1,1.5,0.4,2.6,1.5,3.2c1,0.7,2.2,1,3.6,1c2.9,0,5.6-0.8,8-2.3
		c0.8-0.5,1.6-1.1,2.4-1.7c-0.2,0.6-0.3,1.1-0.5,1.7c-0.5,2-0.6,3.8-0.5,5.3c0.1,1,0.6,1.8,1.3,2.4c0.8,0.6,1.9,0.9,3.4,0.9
		c1.6,0,3.3-0.6,5.4-1.8c2-1.2,3.9-2.5,5.7-4c-0.3,1.4-0.5,2.5-0.5,3.5c0,0.6,0.3,1.1,0.9,1.5c0.5,0.4,1.2,0.7,1.9,0.8
		s1.6,0.1,2.4,0c0.9-0.1,1.7-0.5,2.5-1c1.4-0.9,2.8-1.8,3.9-2.7c1.2-0.9,2.3-1.8,3.5-2.9c1-0.9,2-1.9,3-2.9c0,0,0,0.1,0,0.1
		c-0.8,2-1.5,3.9-2.1,5.6c-0.5,1.2-0.4,2,0.1,2.7c0.5,0.6,1.3,1,2.2,1c0.7,0,1.4-0.1,2.1-0.2c0.7-0.1,1.3-0.4,1.9-0.9
		c0.6-0.5,1.2-1.1,1.7-2c0.6-0.9,1.2-2.1,1.8-3.7l1.6-3.9c0.8-0.8,1.6-1.6,2.4-2.4s1.7-1.7,2.6-2.6s1.7-1.7,2.5-2.5
		c0.8-0.8,1.5-1.4,2.1-1.9c0.9-0.7,1.5-0.9,1.9-0.7c0.4,0.2,0.4,0.7,0,1.6c-1.5,2.8-2.8,5.5-3.8,8.1c-1.1,2.6-1.8,5-2.3,7.2
		c-0.2,0.9,0,1.6,0.4,2.2c0.5,0.6,1.1,1,1.9,1.3c0.8,0.3,1.7,0.4,2.7,0.3c1-0.1,1.9-0.4,2.7-0.9c1.4-0.9,2.7-1.8,3.9-2.7
		c1.2-0.9,2.3-1.8,3.5-2.9c1.1-1,2.3-2.2,3.6-3.5c-0.1,0.4-0.3,0.8-0.4,1.1c-0.7,1.7-1.2,3.4-1.5,5c-0.2,0.9,0,1.6,0.4,2.2
		c0.5,0.6,1.1,1,1.9,1.3c0.8,0.3,1.7,0.4,2.6,0.3c1-0.1,1.8-0.4,2.6-0.9c1.4-0.9,2.7-1.8,3.9-2.7c1.2-0.9,2.3-1.8,3.4-2.9
		c1.1-1,2.3-2.2,3.5-3.5c1.2-1.3,2.7-2.8,4.4-4.4c0.6-0.6,1-1.2,1.2-1.8c0.1-0.5,0.2-1,0.1-1.4c-0.1-0.4-0.2-0.7-0.3-1
		c-0.2-0.2-0.2-0.4-0.2-0.5c-2.1,2.2-4.1,4.3-6.2,6.5c-2,2.1-3.8,3.8-5.2,5.1c-1.4,1.3-2.4,2-3,2.1c-0.6,0.1-0.5-0.8,0.3-2.8
		l11.5-26.1h5.4c0.8,0,1.4-0.2,1.9-0.5c0.5-0.3,0.7-0.5,0.8-0.8c0.1-0.3,0-0.5-0.3-0.7c-0.3-0.2-0.8-0.3-1.5-0.2h-5.2l0,0l2.5-5.7
		c0.1-0.3-0.2-0.6-0.8-0.8s-1.4-0.4-2.2-0.4c-0.9,0-1.8,0.1-2.7,0.4c-0.9,0.3-1.6,0.8-2.2,1.6c-0.4,0.7-0.8,1.4-1.3,2.2
		c-0.5,0.8-0.9,1.7-1.4,2.7h-1c-0.9,0.1-1.6,0.2-2.1,0.4c-0.5,0.2-0.7,0.5-0.7,0.7c0,0.3,0.1,0.5,0.5,0.7c0.3,0.2,0.9,0.4,1.5,0.4
		h0.7c-1.4,2.9-3,6.1-4.6,9.6c-1.3,2.8-2.5,5.5-3.7,8.2c-1.2,1.3-2.5,2.6-3.7,3.9c-2,2.1-3.8,3.8-5.2,5.1c-1.4,1.3-2.4,2-3,2.1
		c-0.6,0.1-0.5-0.8,0.3-2.8c1.3-2.9,2.4-5.3,3.4-7.4c1-2.1,1.8-3.9,2.4-5.4c0.6-1.5,1.1-2.7,1.4-3.8s0.5-1.9,0.4-2.7
		c-0.1-1-0.4-1.7-1-2.2c-0.6-0.5-1.4-0.7-2.4-0.7c-0.7,0-1.5,0.2-2.3,0.6c-0.9,0.4-2,1.1-3.2,2.1c-1.3,1-2.8,2.4-4.5,4.1
		c-1.7,1.7-3.8,3.8-6.2,6.3l5-11.9c0.1-0.4-0.2-0.7-0.8-0.9c-0.6-0.2-1.4-0.4-2.3-0.5c-0.9,0-1.8,0.1-2.7,0.4
		c-0.9,0.3-1.6,0.9-2.1,1.7c-1.2,2-2.4,4-3.5,6.3c-1,2.1-2,4.1-2.9,6.2c-1.1,1.2-2.2,2.4-3.3,3.6c-2,2.1-3.6,3.8-5,5.1
		c-1.4,1.3-2.3,2-2.8,2c-0.5,0.1-0.4-0.9,0.4-2.8c0.9-2.4,1.9-4.8,3.1-7.1c1.2-2.3,2.3-4.8,3.3-7.4c0-0.4-0.5-0.6-1.7-0.8
		c1.5-1.1,2.2-2.4,2.2-3.8h0c-0.1-1.2-0.8-2-2.2-2.5c-1.3-0.6-2.8-0.8-4.6-0.8c-2.4-0.1-4.8,0.4-7,1.2c-2.3,0.9-4.4,2.1-6.3,3.6
		c-2,1.5-3.7,3.3-5.3,5.2c-1,1.3-2,2.6-2.8,3.9c-1,0.9-1.9,1.8-2.9,2.7c-1.8,1.5-3.2,2.7-4.4,3.4c-1.2,0.7-2,0.9-2.5,0.6
		c-0.5-0.3-0.3-1.5,0.5-3.5c0.3-0.9,0.8-2.1,1.4-3.5c0.7-1.4,1.3-2.8,1.9-4.2c0.6-1.4,1.2-2.8,1.7-4c0.5-1.2,0.7-2.2,0.6-2.9
		c-0.1-0.6-0.3-1.1-0.7-1.6c-0.4-0.5-1.2-0.8-2.4-0.8c-0.9,0-1.8,0.2-2.7,0.7c-0.9,0.5-1.8,1-2.6,1.6s-1.4,1.2-2,1.8s-0.9,1-1,1.1
		l-6.6,7.9l0,0l5-11.7c0.1-0.3-0.1-0.6-0.8-0.9c-0.6-0.2-1.4-0.4-2.3-0.5c-0.9,0-1.8,0.1-2.7,0.4c-0.9,0.3-1.6,0.9-2.1,1.7
		c-1.2,2-2.4,4.1-3.5,6.3c-1,2.1-2,4.1-2.9,6.1c-1.1,1.2-2.3,2.4-3.4,3.6c-2,2.1-3.7,3.8-5.2,5.1c-1.4,1.3-2.4,2-3,2
		s-0.4-0.9,0.4-2.8l9.5-20.8c0.1-0.3-0.2-0.6-0.8-0.8c-0.6-0.2-1.4-0.4-2.3-0.5c-0.9,0-1.8,0.1-2.7,0.4c-0.9,0.3-1.6,0.8-2.2,1.6
		c-1,1.6-2,3.2-2.9,4.9c-1,1.7-1.9,3.4-2.9,5.1c-2,2.1-4,4.2-5.9,6.2c-1.9,2-3.5,3.6-4.8,4.8c-1.3,1.2-2.2,1.8-2.8,1.9
		c-0.5,0-0.4-0.9,0.4-2.8l9.5-20.8c0.1-0.3-0.2-0.6-0.8-0.8c-0.6-0.2-1.4-0.4-2.3-0.5c-0.9,0-1.8,0.1-2.8,0.4
		c-1,0.3-1.7,0.8-2.2,1.6c-1.2,1.9-2.3,3.9-3.5,6c-1.2,2.1-2.2,4.1-3.2,6.2c-0.1,0.1-0.1,0.3-0.2,0.4c-1,1.1-2,2.2-3,3.2
		c-2,2.1-3.6,3.8-5,5.1c-1.4,1.3-2.3,2-2.8,2c-0.5,0.1-0.4-0.9,0.4-2.8c0.9-2.4,1.9-4.8,3.1-7.1c1.2-2.3,2.3-4.8,3.3-7.4
		c0-0.4-0.5-0.6-1.7-0.8c1.5-1.1,2.2-2.4,2.2-3.8h0c-0.1-1.2-0.8-2-2.2-2.5c-1.3-0.6-2.8-0.8-4.6-0.8c-2.4-0.1-4.8,0.4-7,1.2
		c-2.3,0.9-4.4,2.1-6.3,3.6c-2,1.5-3.7,3.3-5.3,5.2c-1.1,1.4-2.1,2.8-3,4.2c-1.2,1.3-2.4,2.5-3.6,3.7c-2,2.1-3.8,3.8-5.2,5.1
		c-1.4,1.3-2.4,2-3,2.1c-0.6,0.1-0.5-0.8,0.3-2.8l11.5-26.1h5.3c0.8,0,1.4-0.2,1.9-0.5s0.7-0.5,0.8-0.8c0.1-0.3,0-0.5-0.3-0.7
		c-0.3-0.2-0.8-0.3-1.5-0.2h-5.2l0,0l2.5-5.7c0.1-0.3-0.2-0.6-0.8-0.8s-1.4-0.4-2.2-0.4c-0.9,0-1.8,0.1-2.7,0.4
		c-0.9,0.3-1.6,0.8-2.2,1.6c-0.4,0.7-0.8,1.4-1.3,2.2c-0.5,0.8-0.9,1.7-1.4,2.7h-1c-0.9,0.1-1.6,0.2-2.1,0.4
		c-0.5,0.2-0.7,0.5-0.7,0.7c0,0.3,0.1,0.5,0.5,0.7c0.3,0.2,0.9,0.4,1.5,0.4h0.7c-1.4,2.9-3,6.1-4.6,9.6
		C307.3,417,305.8,420.4,304.3,423.8z M424.1,429.8c0.4-1.3,1-2.8,1.8-4.4c0.8-1.6,1.6-3.2,2.6-4.9c1-1.7,2-3.2,3.1-4.7
		c1.1-1.4,2.2-2.7,3.4-3.7c1.1-1,2.2-1.7,3.3-2c1.2-0.4,1.9-0.4,2.2,0.1c0.3,0.5,0.5,1,0.3,1.4c-0.5,1-1.2,1.9-2.4,2.7
		c-1.1,0.8-2.6,1.3-4.4,1.6h0c0.5,0.6,1.4,0.9,2.8,1c-0.8,1.7-1.7,3.5-2.6,5.5s-1.8,4-2.6,6c-0.7,0.7-1.5,1.5-2.5,2.2
		s-1.8,1.4-2.6,1.9c-0.8,0.5-1.5,0.8-2.1,1c-0.6,0.1-0.9-0.1-0.9-0.7C423.4,432.1,423.7,431.1,424.1,429.8z M327.4,429.8
		c0.4-1.3,1-2.8,1.8-4.4c0.8-1.6,1.6-3.2,2.6-4.9c1-1.7,2-3.2,3.1-4.7c1.1-1.4,2.2-2.7,3.4-3.7c1.1-1,2.2-1.7,3.3-2
		c1.2-0.4,1.9-0.4,2.2,0.1c0.4,0.5,0.5,1,0.4,1.4c-0.5,1-1.2,1.9-2.4,2.7c-1.1,0.8-2.6,1.3-4.4,1.6h0c0.5,0.6,1.4,0.9,2.8,1
		c-0.8,1.7-1.7,3.5-2.6,5.5s-1.8,4-2.6,6c-0.7,0.7-1.5,1.5-2.5,2.2s-1.8,1.4-2.6,1.9c-0.8,0.5-1.5,0.8-2.1,1
		c-0.6,0.1-0.9-0.1-0.9-0.7C326.8,432.1,327,431.1,327.4,429.8z"/>
</g>
</svg>
